PathFileType  4	(X/Y/Z) C:\Users\antoi\Documents\MyRepositories\mobilecap\ResultsAnalysis
DataRate	CameraRate	NumFrames	NumMarkers	Units	OrigDataRate	OrigDataStartFrame	OrigNumFrames
100.0	100.0	4	51	mm	100.0	72	286
Frame#	Time	r_knee			r_shank_antsup			r_ankle			r_calc			r_5meta			r_toe			L_knee			L_shank_antsup			L_ankle			L_calc			L_5meta			L_toe			r_sh2			r_sh3			r_sh4			L_sh2			L_sh3			r_thigh1			r_thigh2			r_thigh3			r_thigh4			r_thigh5			L_thigh1			L_thigh2			L_thigh3			L_thigh4			r.ASIS			r.PSIS			L.ASIS			L.PSIS			C7			R_Shoulder			L_Shoulder			R_Sternum			L_Sternum			R_humerus			R_elbow_med			R_elbow_lat			R_forearm			R_wrist_radius			R_wrist_ulna			L_humerus			L_elbow_med			L_elbow_lat			L_forearm			L_wrist_radius			L_wrist_ulna			R_HJC			L_HJC			R_HJC_reg			L_HJC_reg			
		X1	Y1	Z1	X2	Y2	Z2	X3	Y3	Z3	X4	Y4	Z4	X5	Y5	Z5	X6	Y6	Z6	X7	Y7	Z7	X8	Y8	Z8	X9	Y9	Z9	X10	Y10	Z10	X11	Y11	Z11	X12	Y12	Z12	X13	Y13	Z13	X14	Y14	Z14	X15	Y15	Z15	X16	Y16	Z16	X17	Y17	Z17	X18	Y18	Z18	X19	Y19	Z19	X20	Y20	Z20	X21	Y21	Z21	X22	Y22	Z22	X23	Y23	Z23	X24	Y24	Z24	X25	Y25	Z25	X26	Y26	Z26	X27	Y27	Z27	X28	Y28	Z28	X29	Y29	Z29	X30	Y30	Z30	X31	Y31	Z31	X32	Y32	Z32	X33	Y33	Z33	X34	Y34	Z34	X35	Y35	Z35	X36	Y36	Z36	X37	Y37	Z37	X38	Y38	Z38	X39	Y39	Z39	X40	Y40	Z40	X41	Y41	Z41	X42	Y42	Z42	X43	Y43	Z43	X44	Y44	Z44	X45	Y45	Z45	X46	Y46	Z46	X47	Y47	Z47	X48	Y48	Z48	X49	Y49	Z49	X50	Y50	Z50	X51	Y51	Z51	

72	0.71000000	-971.20263	850.05808	-404.95601	-1009.10970	706.03481	-411.10009	-1274.17617	451.34390	-416.11898	-1341.31757	442.11987	-477.88641	-1168.11734	353.13979	-387.30622	-1125.68871	370.10617	-439.16777	-1047.56742	831.21379	-775.02428	-1084.12827	632.71766	-742.84186	-1312.53325	427.50536	-728.14777	-1375.55698	391.33630	-659.34289	-1196.09950	339.83658	-782.16108	-1146.13579	370.63373	-730.46630	-1080.15614	616.31702	-420.60060	-1062.97047	741.13697	-373.16468	-1134.63635	655.09382	-370.02370	-1139.40977	674.61949	-799.47939	-1211.21274	582.63779	-775.47431	-1064.83295	1125.22985	-385.61479	-1000.47292	1034.80087	-384.06857	-1039.17403	977.69775	-378.74691	-1157.25648	1061.48378	-410.21452	-1088.01148	964.21413	-402.09782	-1083.42978	1127.04952	-789.20865	-1033.82432	1000.31098	-787.34052	-1187.44124	1090.53962	-788.49928	-1135.17981	963.00685	-797.00066	-1083.04452	1327.23433	-472.05736	-1252.88187	1423.36929	-539.43644	-1120.71991	1326.85390	-740.61757	-1262.43436	1428.65288	-632.93327	-977.00898	1829.39200	-623.66700	-894.94764	1764.05793	-463.78760	-940.11545	1781.84619	-798.05462	-872.04628	1695.93562	-609.05004	-877.04843	1696.45835	-659.27943	-973.09903	1525.99784	-358.13660	-1093.94803	1432.26974	-371.74415	-1061.10951	1455.68485	-293.23412	-878.02871	1360.68894	-356.45629	-804.65634	1322.73383	-397.36209	-810.24341	1301.46278	-365.10126	-976.29531	1508.06200	-882.45673	-1083.17210	1428.55465	-864.29735	-1035.92424	1435.31003	-935.29904	-850.68721	1384.91217	-860.41450	-793.26220	1375.91026	-819.70968	-792.31377	1352.00065	-844.44540	-1194.55008	1267.59742	-495.79225	-1223.84382	1273.32972	-690.99970	-1184.59537	1268.01287	-503.77298	-1202.75835	1278.05976	-681.55075	
73	0.72000000	-964.88152	847.58510	-404.56430	-1004.00623	704.05387	-410.95163	-1272.41612	453.12266	-416.36510	-1339.62477	444.52556	-478.39195	-1167.72190	353.50347	-387.46588	-1125.03887	369.93719	-439.27824	-1041.49312	828.16216	-774.59793	-1079.99636	630.39316	-742.40275	-1311.34845	428.59537	-728.23177	-1374.90171	392.66299	-659.25370	-1195.80568	339.86041	-782.26110	-1145.68043	370.31479	-730.31838	-1076.01553	615.19854	-420.85818	-1057.32007	739.72363	-372.73637	-1130.67531	655.25785	-369.90423	-1134.72452	672.90110	-799.31636	-1207.81415	581.79916	-775.06126	-1059.99853	1122.22949	-385.51782	-994.86223	1032.44679	-383.87453	-1033.34374	974.95480	-378.21275	-1152.14926	1057.75759	-409.85890	-1082.08602	960.97938	-401.44741	-1078.69360	1123.65290	-788.78029	-1028.36648	997.23524	-786.97447	-1182.53057	1086.58459	-787.96737	-1129.65211	959.33141	-796.60774	-1079.81502	1322.88132	-471.47318	-1249.58804	1418.87377	-539.12032	-1117.10714	1322.51703	-740.26218	-1258.97894	1424.33116	-632.66897	-973.35947	1824.76871	-623.63037	-891.13918	1759.38652	-463.82583	-936.46267	1777.13439	-797.66093	-868.31338	1691.93004	-609.13002	-873.31690	1692.27359	-658.69701	-965.29526	1520.60151	-357.43993	-1084.31751	1425.48714	-370.22815	-1051.35023	1448.90660	-291.76867	-867.07462	1357.55029	-357.02748	-793.57789	1321.30938	-398.53284	-798.37270	1299.62672	-366.49285	-967.79788	1503.54122	-882.86699	-1074.31328	1421.24871	-866.19957	-1026.03215	1430.05311	-936.53460	-839.63932	1383.51085	-861.76779	-782.03689	1375.93368	-821.60635	-780.61300	1351.66752	-845.77064	-1191.26499	1263.18222	-495.47065	-1220.27344	1268.97069	-690.71895	-1181.29923	1263.30168	-503.51635	-1199.15859	1273.68024	-681.42140	
74	0.73000000	-958.72421	845.03167	-404.32693	-998.99902	701.97512	-411.02283	-1270.63136	454.92495	-416.68632	-1337.88760	446.94571	-478.74500	-1167.25280	353.92486	-387.56838	-1124.32420	369.80813	-439.43452	-1035.22005	825.29226	-774.22769	-1075.73677	628.18453	-741.92969	-1310.05763	429.81182	-728.14808	-1374.19548	394.41637	-659.15098	-1195.56610	339.88832	-782.11624	-1145.16060	369.95914	-730.15792	-1072.07608	614.01101	-421.10908	-1051.84652	738.27633	-372.64243	-1126.69289	655.59108	-370.09900	-1129.90329	671.38445	-799.00393	-1204.25356	581.22388	-774.74657	-1054.94004	1119.41880	-385.53907	-989.28788	1030.10417	-383.67775	-1027.57068	972.26921	-377.79570	-1146.97723	1054.29261	-409.53108	-1076.29235	958.01988	-400.80089	-1073.91369	1120.57154	-788.43755	-1022.90854	994.41339	-786.63038	-1177.54189	1082.85035	-787.40345	-1123.88158	955.93869	-796.34464	-1076.23873	1318.74695	-470.96219	-1246.01189	1414.58848	-538.86387	-1113.32149	1318.46554	-739.92477	-1255.33017	1420.13334	-632.57882	-969.81814	1820.69533	-623.17117	-887.26370	1755.18458	-463.92755	-932.76953	1772.86518	-796.93104	-864.51684	1688.51185	-609.11589	-869.51885	1688.54567	-658.08667	-957.27021	1515.79309	-356.66426	-1074.83628	1418.14504	-368.21082	-1041.51246	1442.40859	-290.15809	-855.83921	1355.09114	-357.38695	-782.09993	1320.42447	-399.73574	-786.10829	1298.70873	-367.58036	-959.13585	1499.57524	-883.33645	-1064.94982	1413.69558	-868.18683	-1015.93949	1425.25368	-937.70279	-828.39854	1383.04177	-863.35537	-770.51831	1377.00977	-823.78966	-768.57220	1352.34799	-847.39199	-1187.65530	1258.97737	-495.21810	-1216.43580	1264.79496	-690.49930	-1177.66115	1258.97171	-503.18684	-1195.36106	1269.50396	-681.19416	
75	0.74000000	-952.73086	842.36853	-404.34977	-994.13542	699.81424	-411.19063	-1268.98942	456.38386	-417.04713	-1336.20251	449.29193	-478.98123	-1166.76200	354.37482	-387.73338	-1123.66856	369.70136	-439.62591	-1028.76250	822.57886	-773.78703	-1071.36416	626.19639	-741.41536	-1308.64494	431.14068	-727.98105	-1373.35675	396.50576	-659.01843	-1195.38880	339.98562	-781.85864	-1144.59168	369.66279	-730.15749	-1068.38803	612.78729	-421.33527	-1046.61687	736.74108	-372.75901	-1122.65414	655.63439	-370.25796	-1124.90073	669.99832	-798.69654	-1200.40356	580.93521	-774.52693	-1049.93770	1116.73865	-385.37789	-983.97384	1027.56552	-383.33407	-1022.02793	969.58679	-377.49012	-1141.74232	1051.06310	-409.34905	-1070.66066	955.02723	-400.57363	-1069.04640	1117.75109	-788.11360	-1017.29829	991.81117	-786.21602	-1172.35273	1079.36385	-787.00289	-1117.87946	952.82305	-796.17909	-1072.29104	1314.98385	-470.52088	-1242.16300	1410.56408	-538.77272	-1109.23472	1314.59504	-739.57393	-1251.48827	1416.09752	-632.46422	-966.24092	1816.84903	-622.49960	-883.31491	1751.41756	-463.99002	-929.09922	1769.14443	-795.88924	-860.69424	1685.46192	-609.05555	-865.71489	1685.32801	-657.36702	-949.00819	1511.55850	-355.79471	-1064.88168	1410.97256	-365.88905	-1031.13640	1436.50365	-288.42266	-844.30257	1353.38551	-357.52354	-770.32752	1320.36705	-400.78275	-773.52565	1298.78725	-368.35720	-950.23503	1496.28411	-883.84542	-1054.06646	1406.89232	-869.84458	-1005.59456	1421.11856	-939.04082	-816.88057	1383.67419	-865.30851	-758.85212	1379.27820	-826.15644	-756.24133	1354.23667	-849.37409	-1183.65931	1255.07693	-494.93406	-1212.27122	1260.76754	-690.24380	-1173.56490	1255.01281	-502.76866	-1191.28689	1265.52880	-680.82165	
